<svg xmlns="http://www.w3.org/2000/svg" aria-hidden="true" style="position:absolute;width:0;height:0;overflow:hidden">
  <defs>
    <symbol id="icon-arrow-up" viewBox="0 0 32 32">
      <path fill="#615cb4" d="M16 9.333 9.333 16h4v5.333h5.333V16h4l-6.667-6.667zM6.667 28h18.667a2.668 2.668 0 0 0 2.667-2.667V6.666a2.668 2.668 0 0 0-2.667-2.667H6.667A2.668 2.668 0 0 0 4 6.666v18.667A2.668 2.668 0 0 0 6.667 28zm0-2.667V6.666h18.667v18.667H6.667z" style="fill:var(--color1, #615cb4)"/>
    </symbol>
    <symbol id="icon-close" viewBox="0 0 32 32">
      <path fill="#fff" d="m25.333 8.547-1.88-1.88L16 14.12 8.547 6.667l-1.88 1.88L14.12 16l-7.453 7.453 1.88 1.88L16 17.88l7.453 7.453 1.88-1.88L17.88 16l7.453-7.453z" style="fill:var(--color2, #fff)"/>
    </symbol>
    <symbol id="icon-cross" viewBox="0 0 32 32">
      <path fill="#eee7d7" d="M3.051 28.132z" style="fill:var(--color3, #eee7d7)"/>
      <path fill="none" stroke="#242529" stroke-linecap="round" stroke-linejoin="round" stroke-width="3.032" d="M3.051 28.132 29.744 4.553" style="stroke:var(--color4, #242529)"/>
      <path fill="#eee7d7" d="M29.744 28.132z" style="fill:var(--color3, #eee7d7)"/>
      <path fill="none" stroke="#242529" stroke-linecap="round" stroke-linejoin="round" stroke-width="3.032" d="M29.744 28.132 3.051 4.553" style="stroke:var(--color4, #242529)"/>
    </symbol>
    <symbol id="icon-left-arrow" viewBox="0 0 32 32">
      <path fill="#362d6e" d="M20.56 9.88 14.44 16l6.12 6.12L18.667 24l-8-8 8-8 1.893 1.88z" style="fill:var(--color5, #362d6e)"/>
    </symbol>
    <symbol id="icon-menu" viewBox="0 0 32 32">
      <path fill="#fff" d="M4 8h24v2.667H4V8zm0 6.667h24v2.667H4v-2.667zm0 6.666h24V24H4v-2.667z" style="fill:var(--color2, #fff)"/>
    </symbol>
    <symbol id="icon-right-arrow" viewBox="0 0 32 32">
      <path fill="#362d6e" d="M11.44 22.12 17.56 16l-6.12-6.12L13.333 8l8 8-8 8-1.893-1.88z" style="fill:var(--color5, #362d6e)"/>
    </symbol>
    <symbol id="icon-cookies" viewBox="0 0 65 64">
      <path d="M41.3858 0C28.6253 0 18.2783 10.3467 18.2783 23.1133C18.2783 35.8733 28.6253 46.22 41.3858 46.22C54.1529 46.22 64.4999 35.8733 64.4999 23.1133C64.4999 10.3467 54.1529 0 41.3858 0Z" fill="#D28147" />
      <path d="M23.6141 17.78C10.847 17.78 0.5 28.1267 0.5 40.8867C0.5 53.6533 10.847 64 23.6141 64C36.3746 64 46.7216 53.6533 46.7216 40.8867C46.7216 28.1267 36.3746 17.78 23.6141 17.78Z" fill="#F6B059" />
      <path d="M20.9485 35.5522C18.4885 35.5522 16.5017 37.5455 16.5017 39.9988C16.5017 42.4521 18.4885 44.4455 20.9485 44.4455C23.402 44.4455 25.3887 42.4521 25.3887 39.9988C25.3887 37.5455 23.402 35.5522 20.9485 35.5522ZM24.502 24.8855C23.0286 24.8855 21.8352 26.0788 21.8352 27.5522C21.8352 29.0255 23.0286 30.2188 24.502 30.2188C25.9754 30.2188 27.1688 29.0255 27.1688 27.5522C27.1688 26.0788 25.9754 24.8855 24.502 24.8855ZM30.7222 46.2188C28.7621 46.2188 27.1688 47.8121 27.1688 49.7788C27.1688 51.7388 28.7621 53.3321 30.7222 53.3321C32.689 53.3321 34.2823 51.7388 34.2823 49.7788C34.2823 47.8121 32.689 46.2188 30.7222 46.2188ZM10.2815 40.8855C8.80812 40.8855 7.61475 42.0788 7.61475 43.5521C7.61475 45.0255 8.80812 46.2188 10.2815 46.2188C11.7549 46.2188 12.9483 45.0255 12.9483 43.5521C12.9483 42.0788 11.7549 40.8855 10.2815 40.8855ZM35.169 35.5522C33.6957 35.5522 32.5023 36.7455 32.5023 38.2188C32.5023 39.6922 33.6957 40.8855 35.169 40.8855C36.6424 40.8855 37.8358 39.6922 37.8358 38.2188C37.8358 36.7455 36.6424 35.5522 35.169 35.5522ZM18.2818 51.5521C17.2951 51.5521 16.5017 52.3521 16.5017 53.3321C16.5017 54.3121 17.2951 55.1121 18.2818 55.1121C19.2618 55.1121 20.0552 54.3121 20.0552 53.3321C20.0552 52.3521 19.2618 51.5521 18.2818 51.5521Z" fill="#6D420D" />
      <path d="M36.0549 7.11447C34.0949 7.11447 32.5015 8.70114 32.5015 10.6678C32.5015 12.6345 34.0949 14.2211 36.0549 14.2211C38.0217 14.2211 39.615 12.6345 39.615 10.6678C39.615 8.70114 38.0217 7.11447 36.0549 7.11447ZM45.8353 16.0011C44.3619 16.0011 43.1685 17.1945 43.1685 18.6678C43.1685 20.1411 44.3619 21.3345 45.8353 21.3345C47.3086 21.3345 48.502 20.1411 48.502 18.6678C48.502 17.1945 47.3086 16.0011 45.8353 16.0011ZM47.6087 5.33447C46.1353 5.33447 44.9419 6.52781 44.9419 8.00114C44.9419 9.47447 46.1353 10.6678 47.6087 10.6678C49.082 10.6678 50.2754 9.47447 50.2754 8.00114C50.2754 6.52781 49.082 5.33447 47.6087 5.33447ZM53.8355 24.8878C52.8555 24.8878 52.0555 25.6878 52.0555 26.6678C52.0555 27.6478 52.8555 28.4478 53.8355 28.4478C54.8156 28.4478 55.6156 27.6478 55.6156 26.6678C55.6156 25.6878 54.8156 24.8878 53.8355 24.8878Z" fill="#7A441D" />
    </symbol>
  </defs>
</svg>
